<mxfile host="app.diagrams.net" modified="2024-04-12T13:02:05.415Z" agent="Mozilla/5.0 (Windows NT 10.0; Win64; x64) AppleWebKit/537.36 (KHTML, like Gecko) Chrome/123.0.0.0 Safari/537.36" etag="-LiwO20j0X5aEd1lc-hx" version="24.2.1" type="google">
  <diagram name="Страница — 1" id="nO0YT579Fn5hDfhARvDM">
    <mxGraphModel dx="875" dy="442" grid="1" gridSize="10" guides="1" tooltips="1" connect="1" arrows="1" fold="1" page="1" pageScale="1" pageWidth="827" pageHeight="1169" math="0" shadow="0">
      <root>
        <mxCell id="0" />
        <mxCell id="1" parent="0" />
        <mxCell id="f2lVTbqEPaXbkkFuKQVC-1" value="Бот" style="shape=umlActor;verticalLabelPosition=bottom;verticalAlign=top;html=1;outlineConnect=0;" vertex="1" parent="1">
          <mxGeometry x="630" y="260" width="30" height="60" as="geometry" />
        </mxCell>
        <mxCell id="f2lVTbqEPaXbkkFuKQVC-15" style="rounded=0;orthogonalLoop=1;jettySize=auto;html=1;entryX=0;entryY=0.5;entryDx=0;entryDy=0;" edge="1" parent="1" source="f2lVTbqEPaXbkkFuKQVC-2" target="f2lVTbqEPaXbkkFuKQVC-14">
          <mxGeometry relative="1" as="geometry" />
        </mxCell>
        <mxCell id="f2lVTbqEPaXbkkFuKQVC-19" style="rounded=0;orthogonalLoop=1;jettySize=auto;html=1;entryX=0;entryY=0.5;entryDx=0;entryDy=0;" edge="1" parent="1" source="f2lVTbqEPaXbkkFuKQVC-2" target="f2lVTbqEPaXbkkFuKQVC-18">
          <mxGeometry relative="1" as="geometry" />
        </mxCell>
        <mxCell id="f2lVTbqEPaXbkkFuKQVC-2" value="Пользователь" style="shape=umlActor;verticalLabelPosition=bottom;verticalAlign=top;html=1;outlineConnect=0;" vertex="1" parent="1">
          <mxGeometry x="180" y="280" width="30" height="60" as="geometry" />
        </mxCell>
        <mxCell id="f2lVTbqEPaXbkkFuKQVC-6" value="Получение новостей по ключевым словам" style="ellipse;whiteSpace=wrap;html=1;" vertex="1" parent="1">
          <mxGeometry x="350" y="200" width="166" height="80" as="geometry" />
        </mxCell>
        <mxCell id="f2lVTbqEPaXbkkFuKQVC-11" style="rounded=0;orthogonalLoop=1;jettySize=auto;html=1;entryX=0.006;entryY=0.667;entryDx=0;entryDy=0;entryPerimeter=0;" edge="1" parent="1" source="f2lVTbqEPaXbkkFuKQVC-2" target="f2lVTbqEPaXbkkFuKQVC-6">
          <mxGeometry relative="1" as="geometry">
            <mxPoint x="340" y="260" as="targetPoint" />
          </mxGeometry>
        </mxCell>
        <mxCell id="f2lVTbqEPaXbkkFuKQVC-13" style="rounded=0;orthogonalLoop=1;jettySize=auto;html=1;entryX=0.982;entryY=0.667;entryDx=0;entryDy=0;entryPerimeter=0;" edge="1" parent="1" source="f2lVTbqEPaXbkkFuKQVC-1" target="f2lVTbqEPaXbkkFuKQVC-6">
          <mxGeometry relative="1" as="geometry" />
        </mxCell>
        <mxCell id="f2lVTbqEPaXbkkFuKQVC-17" style="rounded=0;orthogonalLoop=1;jettySize=auto;html=1;" edge="1" parent="1" source="f2lVTbqEPaXbkkFuKQVC-14" target="f2lVTbqEPaXbkkFuKQVC-1">
          <mxGeometry relative="1" as="geometry" />
        </mxCell>
        <mxCell id="f2lVTbqEPaXbkkFuKQVC-14" value="Выбор/Перевыбор списка каналов" style="ellipse;whiteSpace=wrap;html=1;" vertex="1" parent="1">
          <mxGeometry x="346" y="310" width="170" height="80" as="geometry" />
        </mxCell>
        <mxCell id="f2lVTbqEPaXbkkFuKQVC-18" value="Отписаться от рассылки" style="ellipse;whiteSpace=wrap;html=1;" vertex="1" parent="1">
          <mxGeometry x="346" y="420" width="177" height="90" as="geometry" />
        </mxCell>
        <mxCell id="f2lVTbqEPaXbkkFuKQVC-21" style="rounded=0;orthogonalLoop=1;jettySize=auto;html=1;entryX=0;entryY=1;entryDx=0;entryDy=0;entryPerimeter=0;exitX=1.004;exitY=0.356;exitDx=0;exitDy=0;exitPerimeter=0;" edge="1" parent="1" source="f2lVTbqEPaXbkkFuKQVC-18" target="f2lVTbqEPaXbkkFuKQVC-1">
          <mxGeometry relative="1" as="geometry" />
        </mxCell>
      </root>
    </mxGraphModel>
  </diagram>
</mxfile>
